<svg width="24" height="18" viewBox="0 0 24 18" fill="none" xmlns="http://www.w3.org/2000/svg">
<path d="M3.25 0.5C1.45507 0.5 0 1.95508 0 3.75V14.25C0 16.0449 1.45507 17.5 3.25 17.5H13.7523C15.5472 17.5 17.0023 16.0449 17.0023 14.25V12.6707L21.5434 15.7824C22.3729 16.3508 23.4999 15.7568 23.4999 14.7512V3.24842C23.4999 2.24298 22.3732 1.64898 21.5436 2.21708L17.0023 5.3272V3.75C17.0023 1.95508 15.5472 0.5 13.7523 0.5H3.25ZM17.0023 10.8524V7.1452L21.9999 3.72263V14.2769L17.0023 10.8524ZM15.5023 3.75V14.25C15.5023 15.2165 14.7187 16 13.7523 16H3.25C2.2835 16 1.5 15.2165 1.5 14.25V3.75C1.5 2.7835 2.2835 2 3.25 2H13.7523C14.7188 2 15.5023 2.7835 15.5023 3.75Z" fill="#212121"/>
</svg>
